<?xml version="1.0" encoding="UTF-8"?>
<svg width="800" height="450" viewBox="0 0 800 450" fill="none" xmlns="http://www.w3.org/2000/svg">
  <!-- Background with gradient -->
  <rect width="800" height="450" rx="12" fill="url(#gradient)"/>
  
  <!-- Server icon -->
  <rect x="220" y="140" width="120" height="200" rx="10" fill="#374151" stroke="#4B5563" stroke-width="2"/>
  <rect x="240" y="160" width="80" height="10" rx="2" fill="#10B981" opacity="0.8"/>
  <rect x="240" y="180" width="80" height="10" rx="2" fill="#10B981" opacity="0.8"/>
  <rect x="240" y="200" width="80" height="10" rx="2" fill="#F43F5E" opacity="0.8"/>
  <rect x="240" y="220" width="80" height="10" rx="2" fill="#10B981" opacity="0.8"/>
  <rect x="240" y="240" width="80" height="10" rx="2" fill="#10B981" opacity="0.8"/>
  <rect x="240" y="260" width="80" height="10" rx="2" fill="#10B981" opacity="0.8"/>
  <rect x="240" y="280" width="80" height="10" rx="2" fill="#F43F5E" opacity="0.8"/>
  <rect x="240" y="300" width="80" height="10" rx="2" fill="#10B981" opacity="0.8"/>
  
  <!-- Connection lines -->
  <path d="M 340 190 C 380 190, 380 150, 420 150" stroke="#60A5FA" stroke-width="3" stroke-linecap="round"/>
  <path d="M 340 240 C 380 240, 380 220, 420 220" stroke="#60A5FA" stroke-width="3" stroke-linecap="round"/>
  <path d="M 340 290 C 380 290, 380 290, 420 290" stroke="#60A5FA" stroke-width="3" stroke-linecap="round"/>
  
  <!-- API endpoints -->
  <rect x="420" y="130" width="180" height="40" rx="6" fill="#1F2937" stroke="#374151" stroke-width="2"/>
  <text x="440" y="155" font-family="monospace" font-size="16" fill="#60A5FA">GET /api/users</text>
  
  <rect x="420" y="200" width="180" height="40" rx="6" fill="#1F2937" stroke="#374151" stroke-width="2"/>
  <text x="440" y="225" font-family="monospace" font-size="16" fill="#60A5FA">POST /api/data</text>
  
  <rect x="420" y="270" width="180" height="40" rx="6" fill="#1F2937" stroke="#374151" stroke-width="2"/>
  <text x="440" y="295" font-family="monospace" font-size="16" fill="#60A5FA">PUT /api/update</text>
  
  <!-- Database icon -->
  <path d="M 200 360 C 200 380, 280 380, 280 360 L 280 340 C 280 320, 200 320, 200 340 L 200 360 Z" fill="#1E40AF" opacity="0.9"/>
  <path d="M 200 340 C 200 320, 280 320, 280 340" stroke="#60A5FA" stroke-width="1.5" fill="none"/>
  <path d="M 240 333 C 228 333, 228 347, 240 347 C 252 347, 252 333, 240 333" fill="#0EA5E9" opacity="0.7"/>
  
  <!-- Title -->
  <text x="400" y="50" font-family="Arial, sans-serif" font-size="28" font-weight="bold" fill="white" text-anchor="middle">RESTful API Service</text>
  <text x="400" y="80" font-family="Arial, sans-serif" font-size="16" fill="#D1D5DB" text-anchor="middle">Django REST Framework</text>
  
  <!-- HTTP codes -->
  <rect x="620" y="130" width="60" height="40" rx="4" fill="#065F46" opacity="0.8"/>
  <text x="650" y="155" font-family="monospace" font-size="14" fill="white" text-anchor="middle">200</text>
  
  <rect x="620" y="200" width="60" height="40" rx="4" fill="#065F46" opacity="0.8"/>
  <text x="650" y="225" font-family="monospace" font-size="14" fill="white" text-anchor="middle">201</text>
  
  <rect x="620" y="270" width="60" height="40" rx="4" fill="#065F46" opacity="0.8"/>
  <text x="650" y="295" font-family="monospace" font-size="14" fill="white" text-anchor="middle">204</text>
  
  <!-- Gradient definition -->
  <defs>
    <linearGradient id="gradient" x1="0" y1="0" x2="800" y2="450" gradientUnits="userSpaceOnUse">
      <stop offset="0" stop-color="#0F172A"/>
      <stop offset="1" stop-color="#1E3A8A"/>
    </linearGradient>
  </defs>
</svg> 