<svg width="64" height="64" viewBox="0 0 256 256" xmlns="http://www.w3.org/2000/svg">
  <g fill="#FF9900">
    <path d="M72.01 118.01c0 3.05.34 5.53.93 7.34.68 1.8 1.53 3.76 2.72 5.82.42.68.59 1.35.59 1.95 0 .85-.51 1.7-1.61 2.55l-5.35 3.57c-.76.51-1.53.76-2.21.76-.85 0-1.7-.42-2.55-1.19-1.19-1.27-2.21-2.63-3.06-3.99-.85-1.44-1.7-3.06-2.63-5.01-6.63 7.85-14.99 11.76-25.06 11.76-7.17 0-12.86-2.04-17.01-6.2-4.16-4.08-6.29-9.55-6.29-16.35 0-7.25 2.55-13.12 7.76-17.52 5.18-4.42 12.1-6.63 20.9-6.63 2.89 0 5.9.25 9.04.68 3.14.42 6.37 1.1 9.72 1.87v-6.2c0-6.37-1.36-10.83-3.99-13.38-2.72-2.55-7.34-3.82-13.97-3.82-3.06 0-6.2.34-9.47 1.1-3.23.76-6.37 1.7-9.38 2.98-1.44.68-2.46 1.1-3.14 1.27-.68.17-1.19.25-1.53.25-1.36 0-2.04-1.02-2.04-3.06v-4.84c0-1.61.17-2.72.68-3.4.51-.68 1.36-1.36 2.72-2.04 3.4-1.78 7.51-3.23 12.27-4.33 4.76-1.19 9.81-1.78 15.14-1.78 11.5 0 19.96 2.63 25.32 7.85 5.27 5.27 7.93 13.21 7.93 23.92v31.52h.08Zm-34.69 14.82c2.89 0 5.9-.51 9.13-1.61 3.23-1.1 6.12-3.06 8.5-5.73 1.44-1.7 2.46-3.65 3.06-5.9.59-2.29.93-5.01.93-8.16v-3.91c-2.55-.59-5.27-1.1-8.08-1.44-2.8-.34-5.53-.51-8.33-.51-5.9 0-10.24 1.19-13.21 3.57-2.98 2.38-4.42 5.73-4.42 10.15 0 4.16 1.1 7.25 3.4 9.38 2.21 2.13 5.44 3.14 9.04 3.14Zm68.85 10.58c-1.7 0-2.89-.34-3.65-1.02-.76-.68-1.44-2.13-2.04-4.16l-22.85-75.31c-.59-2.13-.93-3.48-.93-4.16 0-1.7.85-2.63 2.55-2.63h10.41c2.04 0 3.4.34 4.08 1.02.76.68 1.36 2.13 1.95 4.16l16.35 64.35 15.14-64.35c.51-2.13 1.1-3.48 1.87-4.16.76-.68 2.21-1.02 4.16-1.02h8.5c2.04 0 3.4.34 4.16 1.02.76.68 1.44 2.13 1.87 4.16l15.31 65.12 16.86-65.12c.59-2.13 1.27-3.48 1.95-4.16.76-.68 2.13-1.02 4.08-1.02h9.89c1.7 0 2.63.85 2.63 2.63 0 .51-.08 1.02-.17 1.61-.08.59-.25 1.36-.59 2.46l-23.41 75.31c-.59 2.13-1.27 3.48-2.04 4.16-.76.68-1.95 1.02-3.65 1.02h-9.13c-2.04 0-3.4-.34-4.16-1.1-.76-.76-1.44-2.13-1.87-4.25l-15.05-62.65-14.9 62.57c-.51 2.13-1.1 3.57-1.87 4.25-.76.76-2.21 1.1-4.16 1.1h-9.13Zm138.47 2.72c-5.01 0-10.07-.59-14.99-1.7-4.93-1.1-8.76-2.38-11.33-3.82-1.7-.93-2.8-1.95-3.23-2.89-.42-.93-.68-1.95-.68-2.89v-5.01c0-2.04.76-3.06 2.21-3.06.59 0 1.19.08 1.78.25.59.17 1.44.51 2.38.85 3.23 1.44 6.8 2.55 10.58 3.31 3.82.76 7.59 1.19 11.42 1.19 6.04 0 10.75-.93 13.97-2.8 3.23-1.87 4.93-4.59 4.93-8.16 0-2.38-.76-4.33-2.29-5.9-1.53-1.61-4.42-3.06-8.59-4.33l-12.35-3.91c-6.2-1.95-10.75-4.84-13.55-8.67-2.8-3.74-4.25-7.93-4.25-12.44 0-3.65.76-6.88 2.38-9.64 1.61-2.8 3.74-5.18 6.46-7.17 2.72-2.04 5.82-3.57 9.38-4.59 3.57-1.02 7.34-1.53 11.33-1.53 2 0 4.08.08 6.12.34 2.13.25 4.08.59 5.99 1.02 1.87.42 3.65.85 5.35 1.36 1.7.51 3.06 1.02 4.08 1.53 1.36.68 2.38 1.44 2.98 2.21.59.76.93 1.87.93 3.23v4.67c0 2.04-.76 3.14-2.21 3.14-.76 0-2.04-.34-3.74-1.02-5.61-2.55-11.93-3.82-18.98-3.82-5.53 0-9.89.76-12.86 2.38-2.98 1.61-4.5 4.08-4.5 7.59 0 2.38.85 4.42 2.55 6.04 1.7 1.61 4.84 3.14 9.3 4.5l12.1 3.91c6.12 1.95 10.49 4.67 13.12 8.16 2.63 3.48 3.91 7.51 3.91 12.01 0 3.74-.76 7.17-2.29 10.15-1.53 3.06-3.65 5.73-6.37 7.85-2.72 2.21-6.04 3.82-9.81 4.93-3.99 1.19-8.25 1.78-12.78 1.78Z"/>
    <path d="M221.8 207.44c-26.93 19.88-66.05 30.33-99.67 30.33-47.15 0-89.68-17.44-121.77-46.49-2.55-2.29-.25-5.44 2.8-3.65 34.78 20.22 77.75 32.44 122.2 32.44 29.99 0 62.91-6.2 93.24-19.03 4.59-2.04 8.42 3.06 3.23 6.37Z"/>
    <path d="M232.9 194.74c-3.4-4.42-22.77-2.13-31.52-1.1-2.63.34-3.06-1.95-.68-3.65 15.39-10.83 40.71-7.68 43.67-4.08 2.98 3.65-.85 29.06-15.23 41.25-2.21 1.87-4.33.93-3.31-1.61 3.23-8.08 10.49-26.16 7.08-30.82Z"/>
  </g>
</svg> 