<svg width="64" height="64" viewBox="0 0 256 256" xmlns="http://www.w3.org/2000/svg">
  <g fill="#092E20">
    <path d="M186.38 230.6H119.4c-10.18 0-18.14-7.95-18.14-18.13v-70.25c0-10.18 7.95-18.14 18.14-18.14h66.98c10.19 0 18.14 7.95 18.14 18.14v70.25c0 10.18-7.95 18.13-18.14 18.13Z"/>
    <path d="M68 39.4h25.4v122.76c-13.06 2.48-22.66 3.45-33.09 3.45-31.09 0-47.37-14.03-47.37-40.95 0-25.95 17.12-42.88 43.66-42.88 4.12 0 7.28.33 11.4 1.3V39.4Zm0 62.18c-3.05-.98-5.63-1.3-8.94-1.3-13.38 0-21.14 8.23-21.14 22.6 0 14.03 7.44 21.8 21.14 21.8 2.94 0 5.4-.16 8.95-.65v-42.45Z"/>
    <path d="M177.4 79.07v81.98c0 28.2-2.09 41.7-8.29 53.36-5.74 11.15-13.36 18.26-29 26.02l-33-15.7c15.63-7.28 23.28-13.68 28.18-23.53 5.07-10.17 6.68-21.96 6.68-52.89V79.07h35.43Zm-35.44-39.67h35.42v26.48h-35.42V39.4Z"/>
  </g>
</svg> 