<svg width="64" height="64" viewBox="0 0 256 256" xmlns="http://www.w3.org/2000/svg">
  <path fill="#E10098" d="M128 0C57.33 0 0 57.33 0 128s57.33 128 128 128 128-57.33 128-128S198.67 0 128 0Zm0 19.2 108.8 62.84v125.72L128 270.6l-108.8-62.84V82.04L128 19.2Zm0 213.07 90.94-52.51V76.24L128 23.73 37.06 76.24v103.52L128 232.27Z" transform="matrix(.94777 0 0 .94777 6.695 6.695)"/>
  <path fill="#E10098" d="m174.59 159.73 30.47-17.59V97.08l-30.47-17.59-30.47 17.59v44.64l30.47 17.6V159.73ZM128 84.34l30.47-17.6-30.47-17.6-30.47 17.6L128 84.34v-.01Zm-58.82 57.8 30.47-17.6v-44.65l-30.47-17.59-30.47 17.59v44.65l30.47 17.6Zm11.77 24.58 30.47 17.6 30.47-17.6-30.47-17.59-30.47 17.59Zm94.34 0 30.47-17.59-30.47-17.59v35.18Zm-153.17-57.8v44.65l30.47 17.59V109.33L22.12 91.74v17.17Zm82.94 93 17.59 30.47h44.64l17.6-30.47-17.6-30.47h-44.65l-17.59 30.47Zm0-165.77L87.47 5.88h44.65l17.59 30.47-17.59 30.47H87.47l-17.6-30.47h.01Zm88.23 20.94 30.47 17.6v-35.2l-30.47 17.6ZM81.95 207.91l-17.6-30.47-30.47 17.59 30.47 17.59 17.6-30.47v.3.01-.01Z" transform="matrix(.94777 0 0 .94777 6.695 6.695)"/>
</svg> 