<svg xmlns="http://www.w3.org/2000/svg" width="64" height="64" viewBox="0 0 32 32">
  <defs>
    <linearGradient id="A" x1="811.527" y1="574.895" x2="665.255" y2="573.732" gradientUnits="userSpaceOnUse" gradientTransform="matrix(.04349 0 0 .04315 -15.766 -17.246)">
      <stop offset="0" stop-color="#366a96"/>
      <stop offset="1" stop-color="#3679b0"/>
    </linearGradient>
    <linearGradient id="B" x1="862.824" y1="642.176" x2="573.276" y2="642.176" gradientUnits="userSpaceOnUse" gradientTransform="matrix(.04349 0 0 .04315 -15.766 -17.246)">
      <stop offset="0" stop-color="#ffc836"/>
      <stop offset="1" stop-color="#ffe873"/>
    </linearGradient>
  </defs>
  <g transform="matrix(1.25, 0, 0, 1.25, -3.076, -9.633)">
    <path d="M12.737 8.502a2.155 2.133 0 0 0-2.156 2.134v1.565h2.156v.267H8.987a2.155 2.133 0 0 0-2.156 2.134v3.764a2.155 2.133 0 0 0 2.156 2.134h1.078v-1.565h-1.078v-.267h5.494a2.155 2.133 0 0 0 2.156-2.134V12.77a2.155 2.133 0 0 0-2.156-2.134h-1.078V9.069h1.078a2.155 2.133 0 0 0 2.156-2.134V3.169A2.155 2.133 0 0 0 14.481 1.035h-5.494a2.155 2.133 0 0 0-2.156 2.134v3.764a2.155 2.133 0 0 0 2.156 2.134h3.75v-.567zm-1.078-5.332a.718.711 0 1 1-1.436 0 .718.711 0 1 1 1.436 0z" fill="url(#A)"/>
    <path d="M14.481 20.234a2.155 2.133 0 0 0-2.156 2.134v1.565h2.156v.267H8.987a2.155 2.133 0 0 0-2.156 2.134v3.764a2.155 2.133 0 0 0 2.156 2.134h5.494a2.155 2.133 0 0 0 2.156-2.134v-3.764a2.155 2.133 0 0 0-2.156-2.134h-1.078v-1.565h1.078a2.155 2.133 0 0 0 2.156-2.134v-3.764a2.155 2.133 0 0 0-2.156-2.134h-5.494a2.155 2.133 0 0 0-2.156 2.134v3.764a2.155 2.133 0 0 0 2.156 2.134h3.75v-.567h-3.75v-5.332h5.494v5.332h-1.078zm1.078 11.864h-5.494v-5.332H11.659v3.764h2.822v1.565zm-2.822-4.765a.718.711 0 1 1-1.436 0 .718.711 0 1 1 1.436 0z" fill="url(#B)"/>
  </g>
</svg> 